<?xml version="1.0" encoding="UTF-8"?>
<svg class="size-4" fill="none" height="24" viewBox="0 0 24 24" width="24" xmlns="http://www.w3.org/2000/svg" style="transition: none !important; animation-duration: 0s !important; animation-delay: -0.0001s; animation-play-state: paused; fill: none; height: 16px; transition-property: none; visibility: visible; width: 16px"><title style="transition: none !important; animation-duration: 0s !important; animation-delay: -0.0001s; animation-play-state: paused; fill: none; transform-origin: 0px 0px; transition-property: none; visibility: visible">chat</title><path clip-rule="evenodd" d="M9.25 1.25C6.44974 1.25 5.04961 1.25 3.98005 1.79497C3.03924 2.27433 2.27433 3.03924 1.79497 3.98005C1.25 5.04961 1.25 6.44974 1.25 9.25V12.75C1.25 15.5503 1.25 16.9504 1.79497 18.02C2.27433 18.9608 3.03924 19.7257 3.98005 20.205C5.04961 20.75 6.44974 20.75 9.25 20.75H14.5764C15.4012 20.75 15.8135 20.75 16.2144 20.8156C16.5703 20.8738 16.9189 20.9703 17.254 21.1035C17.6315 21.2535 17.9851 21.4657 18.6924 21.8901L19.1152 22.1438C20.3049 22.8576 20.8998 23.2145 21.3892 23.1689C21.816 23.1291 22.2054 22.9086 22.4591 22.5631C22.75 22.1669 22.75 21.4732 22.75 20.0858V9.25C22.75 6.44974 22.75 5.04961 22.205 3.98005C21.7257 3.03924 20.9608 2.27433 20.02 1.79497C18.9504 1.25 17.5503 1.25 14.75 1.25H9.25Z" fill="currentColor" fill-rule="evenodd" style="transition: none !important; animation-duration: 0s !important; animation-delay: -0.0001s; animation-play-state: paused; fill: oklab(0.205 -0.00000207871 0.00000478327 / 0.8); fill-rule: evenodd; transform-origin: 0px 0px; transition-property: none; visibility: visible"></path></svg>